<svg width="32" height="33" viewBox="0 0 32 33" fill="none" xmlns="http://www.w3.org/2000/svg">
<path d="M30.8607 7.93756C31.223 6.76896 31.3392 5.53798 31.202 4.32223C31.0649 3.10649 30.6773 1.93235 30.0637 0.873862C29.9597 0.693652 29.81 0.544012 29.6298 0.439988C29.4496 0.335964 29.2451 0.281223 29.037 0.281269C27.6566 0.27838 26.2946 0.598401 25.0598 1.21576C23.8251 1.83313 22.7519 2.73072 21.9259 3.83682H18.3704C17.5444 2.73072 16.4712 1.83313 15.2365 1.21576C14.0017 0.598401 12.6397 0.27838 11.2593 0.281269C11.0512 0.281223 10.8467 0.335964 10.6665 0.439988C10.4863 0.544012 10.3366 0.693652 10.2326 0.873862C9.61903 1.93235 9.23145 3.10649 9.09427 4.32223C8.95709 5.53798 9.07329 6.76896 9.43556 7.93756C8.7033 9.21566 8.31105 10.6602 8.2963 12.1331V13.3183C8.29879 15.3236 9.02677 17.2603 10.3458 18.7708C11.6649 20.2813 13.4859 21.2635 15.4726 21.5361C14.6616 22.5738 14.2215 23.8531 14.2222 25.1701V26.3553H10.6667C9.72367 26.3553 8.81931 25.9807 8.15251 25.3139C7.48571 24.6471 7.11111 23.7428 7.11111 22.7998C7.11111 22.0216 6.95783 21.251 6.66003 20.532C6.36222 19.8131 5.92572 19.1598 5.37545 18.6095C4.82517 18.0592 4.17191 17.6227 3.45294 17.3249C2.73397 17.0271 1.96339 16.8739 1.18519 16.8739C0.870854 16.8739 0.569398 16.9987 0.347133 17.221C0.124867 17.4432 0 17.7447 0 18.059C0 18.3734 0.124867 18.6748 0.347133 18.8971C0.569398 19.1194 0.870854 19.2442 1.18519 19.2442C2.12818 19.2442 3.03255 19.6188 3.69934 20.2856C4.36614 20.9524 4.74074 21.8568 4.74074 22.7998C4.74074 24.3714 5.36508 25.8787 6.4764 26.99C7.58773 28.1014 9.09501 28.7257 10.6667 28.7257H14.2222V31.0961C14.2222 31.4104 14.3471 31.7119 14.5694 31.9341C14.7916 32.1564 15.0931 32.2812 15.4074 32.2812C15.7217 32.2812 16.0232 32.1564 16.2455 31.9341C16.4677 31.7119 16.5926 31.4104 16.5926 31.0961V25.1701C16.5926 24.2272 16.9672 23.3228 17.634 22.656C18.3008 21.9892 19.2052 21.6146 20.1481 21.6146C21.0911 21.6146 21.9955 21.9892 22.6623 22.656C23.3291 23.3228 23.7037 24.2272 23.7037 25.1701V31.0961C23.7037 31.4104 23.8286 31.7119 24.0508 31.9341C24.2731 32.1564 24.5746 32.2812 24.8889 32.2812C25.2032 32.2812 25.5047 32.1564 25.7269 31.9341C25.9492 31.7119 26.0741 31.4104 26.0741 31.0961V25.1701C26.0748 23.8531 25.6347 22.5738 24.8237 21.5361C26.8104 21.2635 28.6314 20.2813 29.9505 18.7708C31.2695 17.2603 31.9975 15.3236 32 13.3183V12.1331C31.9852 10.6602 31.593 9.21566 30.8607 7.93756ZM29.6296 13.3183C29.6296 14.89 29.0053 16.3972 27.894 17.5086C26.7826 18.6199 25.2754 19.2442 23.7037 19.2442H16.5926C15.0209 19.2442 13.5137 18.6199 12.4023 17.5086C11.291 16.3972 10.6667 14.89 10.6667 13.3183V12.1331C10.6812 10.948 11.036 9.79196 11.6889 8.80274C11.8106 8.64233 11.8894 8.45355 11.9179 8.25422C11.9464 8.05489 11.9237 7.85159 11.8519 7.66349C11.5431 6.86734 11.3946 6.01809 11.4147 5.16442C11.4347 4.31075 11.6231 3.46943 11.9689 2.68868C12.9388 2.79302 13.8729 3.11433 14.7017 3.62878C15.5306 4.14323 16.2331 4.83764 16.757 5.66053C16.8638 5.8275 17.0108 5.96502 17.1844 6.06053C17.3581 6.15603 17.5529 6.20645 17.7511 6.20719H22.5437C22.7426 6.2072 22.9384 6.15713 23.1129 6.06159C23.2874 5.96605 23.435 5.82813 23.5422 5.66053C24.0661 4.83757 24.7686 4.1431 25.5974 3.62864C26.4263 3.11418 27.3604 2.79291 28.3304 2.68868C28.6757 3.46963 28.8635 4.31104 28.8831 5.16471C28.9027 6.01839 28.7536 6.86753 28.4444 7.66349C28.3728 7.84979 28.3488 8.05103 28.3747 8.24895C28.4006 8.44687 28.4755 8.63519 28.5926 8.79682C29.2519 9.78604 29.612 10.9444 29.6296 12.1331V13.3183Z" fill="#1C3A5F"/>
</svg>
