<svg width="126" height="84" viewBox="0 0 126 84" fill="none" xmlns="http://www.w3.org/2000/svg">
<path d="M21.5686 2.01971L21.6745 4.07487L27.1467 4.25204C30.536 4.35834 32.9014 4.60638 33.3957 4.88985C35.2668 5.95286 35.2668 5.95286 35.2668 19.1342V31.3588L31.3127 35.3274L27.3233 39.3314L31.3127 43.3354L35.2668 47.3039V56.3395C35.2668 66.2255 34.9844 68.2452 33.2192 71.8595C31.9482 74.4816 29.4062 77.0682 26.8996 78.2375C25.205 79.0171 24.2164 79.1942 21.2862 79.3005C17.332 79.4777 14.7195 78.9108 12.1069 77.3871C10.2358 76.2887 7.482 73.3477 6.81121 71.7532C6.10512 69.9815 6.17573 67.2177 6.98774 66.2255L7.62322 65.4106L10.4829 66.0838C13.2014 66.6862 13.4132 66.6862 14.9313 66.1192C19.5562 64.3475 21.1096 57.934 17.9675 53.5757C15.7433 50.4575 10.6594 49.3591 6.84652 51.1662C4.55171 52.2292 1.97446 55.0994 0.985932 57.686C0.032704 60.2372 -0.285039 64.7727 0.279837 67.7492C1.72733 75.1548 7.76444 81.2494 15.708 83.2691C19.4856 84.2613 25.5227 84.2258 29.6181 83.2691C38.5149 81.1077 44.8697 75.1902 46.7409 67.2885C47.1292 65.5877 47.2704 62.8239 47.2704 56.1624V47.3039L51.2246 43.3354L55.214 39.3314L51.2246 35.3274L47.2704 31.3588V19.5594C47.2704 6.30719 47.3411 5.88199 49.5299 4.81898C50.6597 4.28748 51.8954 4.21661 59.9448 4.32291C69.0888 4.42921 69.0888 4.42921 70.0067 5.27962L70.9246 6.13002V40.9968C70.9246 65.3043 70.8187 76.0761 70.5363 76.6076C69.8302 77.9186 68.1002 78.3084 62.8045 78.3084H57.8619V80.4344V82.5604H77.6325H97.4032V80.4344V78.3084L92.2134 78.273C86.4234 78.273 84.9759 77.9541 83.8461 76.4304C83.1047 75.4383 83.1047 75.0485 82.9988 58.5719L82.8929 41.7409L88.118 41.8826C94.1904 42.0952 95.8145 42.5558 98.2858 44.7173C100.969 47.0913 102.522 50.9182 103.017 56.4458L103.228 58.9971L105.276 59.1034L107.288 59.2097V40.3944V21.6145H105.17H103.052V23.2799C103.017 27.4965 101.287 31.8903 98.6388 34.3352C95.8498 36.9219 94.5082 37.3471 88.2945 37.4888L82.8929 37.6306L82.9988 21.7917L83.1047 5.95286L84.0933 5.10245L85.0818 4.25204H94.0845C104.252 4.25204 107.006 4.60638 110.784 6.48436C116.432 9.24818 119.363 14.6695 121.763 26.6461L122.152 28.7013H124.094H126V27.1776C126 26.3626 125.753 20.3389 125.47 13.8191C125.188 7.29933 124.941 1.52364 124.941 0.956711V0H73.2194H21.4627L21.5686 2.01971Z" fill="#B3D9FF"/>
</svg>
