<svg width="32" height="25" viewBox="0 0 32 25" fill="none" xmlns="http://www.w3.org/2000/svg">
<path d="M30.7692 0H1.23077C0.904349 0 0.591298 0.131696 0.360484 0.366117C0.12967 0.600537 0 0.918479 0 1.25V22.5C0 23.163 0.25934 23.7989 0.720968 24.2678C1.1826 24.7366 1.8087 25 2.46154 25H29.5385C30.1913 25 30.8174 24.7366 31.279 24.2678C31.7407 23.7989 32 23.163 32 22.5V1.25C32 0.918479 31.8703 0.600537 31.6395 0.366117C31.4087 0.131696 31.0957 0 30.7692 0ZM16 13.3047L4.39538 2.5H27.6046L16 13.3047ZM11.4938 12.5L2.46154 20.9078V4.09219L11.4938 12.5ZM13.3154 14.1953L15.1615 15.9219C15.3886 16.1336 15.6856 16.251 15.9938 16.251C16.3021 16.251 16.5991 16.1336 16.8262 15.9219L18.6723 14.1953L27.5954 22.5H4.39538L13.3154 14.1953ZM20.5062 12.5L29.5385 4.09062V20.9094L20.5062 12.5Z" fill="#1C3A5F"/>
</svg>
